<svg xmlns="http://www.w3.org/2000/svg" xmlns:xlink="http://www.w3.org/1999/xlink" width="48" zoomAndPan="magnify" viewBox="0 0 36 36.000001" height="48" preserveAspectRatio="xMidYMid meet" version="1.0"><defs><g/></defs><g fill="#ffd000" fill-opacity="1"><g transform="translate(5.540421, 28.981303)"><g><path d="M 13.171875 -11.347656 L 14.917969 -10.554688 L 14.917969 -1.230469 C 10.433594 -2.976562 10.671875 -9.285156 10.59375 -12.894531 C 10.433594 -19.242188 12.496094 -24.597656 16.625 -25.3125 L 16.664062 -25.828125 C 7.695312 -26.421875 0.4375 -24.003906 0.476562 -12.578125 C 0.515625 -2.699219 7.261719 0.636719 16.941406 0.238281 L 23.804688 -0.0390625 L 23.804688 -12.496094 L 13.171875 -12.496094 Z M 23.410156 -25.828125 L 23.449219 -14.71875 C 23.449219 -14.71875 14.164062 -13.53125 14.164062 -20.195312 C 14.203125 -26.304688 21.464844 -25.828125 23.410156 -25.828125 Z M 23.410156 -25.828125 "/></g></g></g></svg>